<?xml version="1.0" encoding="UTF-8" standalone="no"?>
<!DOCTYPE svg PUBLIC "-//W3C//DTD SVG 1.1//EN" "http://www.w3.org/Graphics/SVG/1.1/DTD/svg11.dtd">
<svg xmlns="http://www.w3.org/2000/svg" xmlns:xlink="http://www.w3.org/1999/xlink" xmlns:ev="http://www.w3.org/2001/xml-events"
		width="5.2141in" height="3.10185in" viewBox="0 0 375.415 223.333" xml:space="preserve" color-interpolation-filters="sRGB"
		class="st12">
	<style type="text/css">
	<![CDATA[
		.st1 {fill:#fee599;stroke:#c7c8c8;stroke-width:0.25}
		.st2 {fill:#007f7f;stroke:none;stroke-width:0.25}
		.st3 {fill:#feffff;font-family:"Microsoft YaHei";font-size:1.00001em}
		.st4 {fill:#1e4e79;stroke:none;stroke-width:0.25}
		.st5 {fill:#7f7f7f;stroke:none;stroke-width:0.25}
		.st6 {fill:#bf9000;stroke:none;stroke-width:0.25}
		.st7 {fill:#525252;stroke:none;stroke-width:0.25}
		.st8 {fill:#538135;stroke:none;stroke-width:0.25}
		.st9 {fill:none;stroke:none;stroke-width:0.25}
		.st10 {fill:#333333;font-family:"Microsoft YaHei";font-size:1.00001em}
		.st11 {fill:#5b9bd5;stroke:none;stroke-width:0.25}
		.st12 {fill:none;fill-rule:evenodd;font-size:12px;overflow:visible;stroke-linecap:square;stroke-miterlimit:3}
	]]>
	</style>

	<g>
		<g transform="translate(18.25,-61.2216)">
			<rect x="0" y="122.443" width="338.915" height="100.89" rx="5.66929" ry="5.66929" class="st1"/>
		</g>
		<g transform="translate(23.855,-98.5883)">
			<desc>图形库</desc>
			<rect x="0" y="197.177" width="83.5144" height="26.1566" rx="5.66929" ry="5.66929" class="st2"/>
			<text x="23.76" y="213.86" class="st3">图形库</text>		</g>
		<g transform="translate(23.855,-130.35)">
			<desc>窗口管理器</desc>
			<rect x="0" y="197.177" width="171.887" height="26.1566" rx="5.66929" ry="5.66929" class="st4"/>
			<text x="55.94" y="213.86" class="st3">窗口管理器</text>		</g>
		<g transform="translate(23.855,-66.8266)">
			<desc>图形设备接口</desc>
			<rect x="0" y="197.177" width="171.887" height="26.1566" rx="5.66929" ry="5.66929" class="st5"/>
			<text x="49.94" y="213.86" class="st3">图形设备接口</text>		</g>
		<g transform="translate(200.599,-66.8266)">
			<desc>内存管理</desc>
			<rect x="0" y="197.177" width="83.5144" height="26.1566" rx="5.66929" ry="5.66929" class="st5"/>
			<text x="17.76" y="213.86" class="st3">内存管理</text>		</g>
		<g transform="translate(200.599,-98.5883)">
			<desc>内存设备</desc>
			<rect x="0" y="197.177" width="83.5144" height="26.1566" rx="5.66929" ry="5.66929" class="st6"/>
			<text x="17.76" y="213.86" class="st3">内存设备</text>		</g>
		<g transform="translate(112.227,-98.5883)">
			<desc>颜色管理</desc>
			<rect x="0" y="197.177" width="83.5144" height="26.1566" rx="5.66929" ry="5.66929" class="st2"/>
			<text x="17.76" y="213.86" class="st3">颜色管理</text>		</g>
		<g transform="translate(200.599,-130.35)">
			<desc>控件集</desc>
			<rect x="0" y="197.177" width="83.5144" height="26.1566" rx="5.66929" ry="5.66929" class="st7"/>
			<text x="23.76" y="213.86" class="st3">控件集</text>		</g>
		<g transform="translate(18.25,-18.25)">
			<rect x="0" y="185.967" width="338.915" height="37.3666" rx="5.66929" ry="5.66929" class="st1"/>
		</g>
		<g transform="translate(23.855,-23.855)">
			<desc>LCD和输入设备驱动程序</desc>
			<rect x="0" y="197.177" width="260.259" height="26.1566" rx="5.66929" ry="5.66929" class="st8"/>
			<text x="64.56" y="213.86" class="st3">LCD和输入设备驱动程序</text>		</g>
		<g transform="translate(284.114,-24.9099)">
			<desc>底层接口</desc>
			<rect x="0" y="198.231" width="73.0518" height="25.1017" class="st9"/>
			<text x="12.53" y="214.38" class="st10">底层接口</text>		</g>
		<g transform="translate(284.114,-98.5883)">
			<desc>S-GUI</desc>
			<rect x="0" y="198.231" width="73.0518" height="25.1017" class="st9"/>
			<text x="19.93" y="214.38" class="st10">S-GUI</text>		</g>
		<g transform="translate(18.25,-167.717)">
            <rect x="0" y="185.967" width="338.915" height="37.3666" rx="5.66929" ry="5.66929" class="st1"/>
		</g>
		<g transform="translate(24.3238,-172.93)">
			<rect x="0" y="197.177" width="81.0856" height="26.1566" rx="5.66929" ry="5.66929" class="st11"/>
			<text x="12.1" y="213.86" class="st3">Window 1</text>		</g>
		<g transform="translate(113.769,-172.93)">
			<rect x="0" y="197.177" width="81.0856" height="26.1566" rx="5.66929" ry="5.66929" class="st11"/>
			<text x="12.1" y="213.86" class="st3">Window 2</text>		</g>
		<g transform="translate(203.215,-172.93)">
			<rect x="0" y="197.177" width="81.0856" height="26.1566" rx="5.66929" ry="5.66929" class="st11"/>
			<text x="11.43" y="213.86" class="st3">Window ...</text>		</g>
		<g transform="translate(284.3,-173.985)">
			<desc>应用层</desc>
			<rect x="0" y="198.231" width="72.8649" height="25.1017" class="st9"/>
			<text x="18.43" y="214.38" class="st10">应用层</text>		</g>
	</g>
</svg>
